<svg height="496pt" viewBox="0 0 496 496" width="496pt" xmlns="http://www.w3.org/2000/svg"><path d="m288 448h16v16h-16zm0 0"/><path d="m256 448h16v16h-16zm0 0"/><path d="m224 448h16v16h-16zm0 0"/><path d="m288 352h16v16h-16zm0 0"/><path d="m256 352h16v16h-16zm0 0"/><path d="m224 352h16v16h-16zm0 0"/><path d="m128 256h16v16h-16zm0 0"/><path d="m96 256h16v16h-16zm0 0"/><path d="m64 256h16v16h-16zm0 0"/><path d="m488 224h-160c-4.414062 0-8 3.585938-8 8v64c0 4.414062 3.585938 8 8 8h136v96h-17.136719c-2.910156-11.191406-11.671875-19.953125-22.863281-22.863281v-25.136719c0-4.414062-3.585938-8-8-8h-80v-16c0-4.414062-3.585938-8-8-8h-72v-25.136719c13.761719-3.574219 24-16 24-30.863281s-10.238281-27.289062-24-30.863281v-57.136719h112c26.472656 0 48-21.527344 48-48s-21.527344-48-48-48c-2.886719 0-5.742188.265625-8.550781.800781.367187-2.929687.550781-5.863281.550781-8.800781 0-39.695312-32.304688-72-72-72-28.046875 0-53.351562 16.503906-65.078125 41.3125-9.089844-6.066406-19.746094-9.3125-30.921875-9.3125-28.425781 0-51.976562 21.296875-55.535156 48.769531-2.792969-.511719-5.617188-.769531-8.464844-.769531-26.472656 0-48 21.527344-48 48s21.527344 48 48 48h112v57.136719c-13.761719 3.574219-24 16-24 30.863281s10.238281 27.289062 24 30.863281v25.136719h-72c-4.414062 0-8 3.585938-8 8v16h-80c-4.414062 0-8 3.585938-8 8v25.136719c-11.191406 2.910156-19.953125 11.671875-22.863281 22.863281h-17.136719v-96h136c4.414062 0 8-3.585938 8-8v-64c0-4.414062-3.585938-8-8-8h-160c-4.414062 0-8 3.585938-8 8v64c0 4.414062 3.585938 8 8 8h8v104c0 4.414062 3.585938 8 8 8h25.136719c2.910156 11.191406 11.671875 19.953125 22.863281 22.863281v25.136719c0 4.414062 3.585938 8 8 8h80v16c0 4.414062 3.585938 8 8 8h160c4.414062 0 8-3.585938 8-8v-16h80c4.414062 0 8-3.585938 8-8v-25.136719c11.191406-2.910156 19.953125-11.671875 22.863281-22.863281h25.136719c4.414062 0 8-3.585938 8-8v-104h8c4.414062 0 8-3.585938 8-8v-64c0-4.414062-3.585938-8-8-8zm-360-64c-17.648438 0-32-14.351562-32-32s14.351562-32 32-32c4.414062 0 8.769531.9375 12.929688 2.785156 2.574218 1.144532 5.527343.664063 7.832031-.960937 2.300781-1.617188 3.566406-4.511719 3.367187-7.320313-.066406-.832031-.128906-1.65625-.128906-2.503906 0-22.054688 17.945312-40 40-40 10.894531 0 21.089844 4.328125 28.703125 12.183594 2 2.054687 4.945313 2.894531 7.703125 2.191406 2.777344-.703125 4.960938-2.832031 5.738281-5.582031 6.777344-24.015625 28.917969-40.792969 53.855469-40.792969 30.878906 0 56 25.121094 56 56 0 6.296875-1.105469 12.59375-3.289062 18.726562-1.117188 3.152344-.160157 6.671876 2.410156 8.816407 2.566406 2.152343 6.199218 2.480469 9.101562.808593 5.050782-2.886718 10.351563-4.351562 15.777344-4.351562 17.648438 0 32 14.351562 32 32s-14.351562 32-32 32h-112v-17.136719c11.191406-2.910156 19.953125-11.671875 22.863281-22.863281h33.136719v-16h-33.136719c-3.574219-13.761719-16-24-30.863281-24s-27.289062 10.238281-30.863281 24h-33.136719v16h33.136719c2.910156 11.191406 11.671875 19.953125 22.863281 22.863281v17.136719zm120-32c-8.824219 0-16-7.175781-16-16s7.175781-16 16-16 16 7.175781 16 16-7.175781 16-16 16zm-16 136c0-8.824219 7.175781-16 16-16s16 7.175781 16 16-7.175781 16-16 16-16-7.175781-16-16zm-72 24h-112v-48h112zm-144-48h16v48h-16zm176 176v-16h112v16zm16-32v-48h112v48zm-32-48h16v48h-16zm-112 72c0-8.824219 7.175781-16 16-16s16 7.175781 16 16-7.175781 16-16 16-16-7.175781-16-16zm96 16v32h-72v-17.136719c13.761719-3.574219 24-16 24-30.863281s-10.238281-27.289062-24-30.863281v-17.136719h72v32c0 4.414062 3.585938 8 8 8h8v16h-8c-4.414062 0-8 3.585938-8 8zm16 8h16v48h-16zm144 48h-112v-48h112zm16-24v-32c0-4.414062-3.585938-8-8-8h-8v-16h8c4.414062 0 8-3.585938 8-8v-32h72v17.136719c-13.761719 3.574219-24 16-24 30.863281s10.238281 27.289062 24 30.863281v17.136719zm80-32c-8.824219 0-16-7.175781-16-16s7.175781-16 16-16 16 7.175781 16 16-7.175781 16-16 16zm-80-184h16v48h-16zm144 48h-112v-48h112zm0 0"/><path d="m448 256h16v16h-16zm0 0"/><path d="m416 256h16v16h-16zm0 0"/><path d="m384 256h16v16h-16zm0 0"/></svg>