<svg id="international-law" enable-background="new 0 0 300 300" height="512" viewBox="0 0 300 300" width="512" xmlns="http://www.w3.org/2000/svg"><g fill="#e29393"><path d="m178 162c-26.469 0-48-21.531-48-48s21.531-48 48-48 48 21.531 48 48-21.531 48-48 48zm0-80c-17.648 0-32 14.352-32 32s14.352 32 32 32 32-14.352 32-32-14.352-32-32-32z"/><path d="m178 162c-16.492 0-24-24.883-24-48s7.508-48 24-48 24 24.883 24 48-7.508 48-24 48zm.43-15.93h.078zm-.43-63.867c-2.617 2.055-8 13.016-8 31.797s5.383 29.742 8 31.797c2.617-2.055 8-13.016 8-31.797s-5.383-29.742-8-31.797z"/><path d="m218 122h-80c-4.422 0-8-3.578-8-8s3.578-8 8-8h80c4.422 0 8 3.578 8 8s-3.578 8-8 8z"/></g><path d="m266 34h-176c-4.422 0-8 3.578-8 8v128h-48c-4.422 0-8 3.578-8 8v52c0 17.354 12.342 31.875 28.71 35.254 1.009.459 2.109.746 3.29.746h187.086c15.945 0 28.914-12.969 28.914-28.914v-195.086c0-4.422-3.578-8-8-8zm-224 196v-44h40v40 4c0 11.031-8.969 20-20 20s-20-8.969-20-20zm216 7.086c0 7.117-5.797 12.914-12.914 12.914h-153.18c3.841-5.726 6.094-12.602 6.094-20v-4-48-128h160z"/><path d="m114 170h56v16h-56z"/><path d="m114 194h56v16h-56z"/><path d="m114 218h56v16h-56z"/><path d="m186 170h56v16h-56z"/><path d="m186 194h56v16h-56z"/><path d="m186 218h56v16h-56z"/></svg>