<svg height="512" viewBox="0 0 64 64" width="512" xmlns="http://www.w3.org/2000/svg"><path d="m60 11h-56a3 3 0 0 0 -3 3v36a3 3 0 0 0 3 3h56a3 3 0 0 0 3-3v-36a3 3 0 0 0 -3-3zm-57 3a1 1 0 0 1 1-1h56a1 1 0 0 1 1 1v4h-58zm58 36a1 1 0 0 1 -1 1h-56a1 1 0 0 1 -1-1v-30h58z"/><path d="m7 35a1 1 0 0 0 .707-.293l.293-.293v9.586a1 1 0 0 0 1 1h14a1 1 0 0 0 1-1v-9.586l.293.293a1 1 0 0 0 1.414-1.414l-2-2c-.01-.01-.024-.013-.034-.023s-.013-.021-.023-.029l-7-6a1 1 0 0 0 -1.3 0l-7 6c-.01.008-.013.021-.023.029s-.024.013-.034.023l-2 2a1 1 0 0 0 .707 1.707zm9-7.683 6 5.143v10.54h-12v-10.54z"/><path d="m31 31a3 3 0 0 0 3-3 2.962 2.962 0 0 0 -.355-1.386l2.691-2.692h6.13a4.953 4.953 0 0 0 -.466 2.078 5.033 5.033 0 1 0 2.1-4.058c-.035 0-.065-.02-.1-.02h-8.078a1 1 0 0 0 -.707.293l-3.031 3.031a3 3 0 1 0 -1.184 5.754zm19-5a3 3 0 1 1 -3-3 3 3 0 0 1 3 3zm-19 1a1 1 0 1 1 -1 1 1 1 0 0 1 1-1z"/><path d="m30 47a2.96 2.96 0 0 0 1.287-.3l.006.009 2 2a1 1 0 0 0 .707.291h17a1 1 0 0 0 0-2h-16.586l-1.707-1.707-.009-.006a2.957 2.957 0 0 0 .302-1.287 3 3 0 1 0 -3 3zm0-4a1 1 0 1 1 -1 1 1 1 0 0 1 1-1z"/><path d="m55 47h-1a1 1 0 0 0 0 2h1a1 1 0 0 0 0-2z"/><path d="m49 37v7a1 1 0 0 0 1 1h7a1 1 0 0 0 1-1v-7a1 1 0 0 0 -1-1h-7a1 1 0 0 0 -1 1zm2 1h5v5h-5z"/><path d="m7 14h-2a1 1 0 0 0 0 2h2a1 1 0 0 0 0-2z"/><path d="m21 14h-11a1 1 0 0 0 0 2h11a1 1 0 0 0 0-2z"/><path d="m47 39h-10a1 1 0 0 0 0 2h10a1 1 0 0 0 0-2z"/><path d="m47 36h-3a1 1 0 0 0 0 2h3a1 1 0 0 0 0-2z"/></svg>